<?xml version="1.0" encoding="UTF-8" standalone="no"?>
<!DOCTYPE svg PUBLIC "-//W3C//DTD SVG 1.1//EN" "http://www.w3.org/Graphics/SVG/1.1/DTD/svg11.dtd">
<svg width="100%" height="100%" viewBox="0 0 1000 1000" version="1.1" xmlns="http://www.w3.org/2000/svg" xmlns:xlink="http://www.w3.org/1999/xlink" xml:space="preserve" xmlns:serif="http://www.serif.com/" style="fill-rule:evenodd;clip-rule:evenodd;stroke-linejoin:round;stroke-miterlimit:2;">
    <rect id="Artboard1" x="0" y="0" width="1000" height="1000" style="fill:none;"/>
    <g id="Artboard11" serif:id="Artboard1">
        <g id="vecteezy_chain-link-icon-vector_6758316.svg" transform="matrix(0.476092,0.476092,-0.476092,0.476092,500,247.56)">
            <g transform="matrix(1,0,0,1,-1000,-1000)">
                <path d="M1048.42,848.039L1001.5,894.852C999.465,896.891 997.598,899.059 995.828,901.301C995.293,901.961 994.809,902.672 994.297,903.359C993.074,905.012 991.93,906.711 990.855,908.461C990.398,909.211 989.922,909.961 989.496,910.73C988.305,912.82 987.23,914.969 986.266,917.172C986.094,917.559 985.891,917.91 985.734,918.289C984.637,920.898 983.703,923.578 982.922,926.309C982.867,926.5 982.82,926.711 982.777,926.91C1004.13,932.969 1023.7,944.422 1039.66,960.449C1062.89,983.68 1076.42,1014.58 1077.76,1047.47C1077.76,1047.56 1077.79,1047.64 1077.79,1047.73L1077.79,1047.9C1079.38,1084.41 1065.41,1120.29 1039.45,1146.16L978.469,1207.07C978.367,1207.17 978.23,1207.24 978.129,1207.35L804.355,1380.75C779.609,1405.5 746.672,1419.14 711.617,1419.14C676.516,1419.14 643.5,1405.45 618.652,1380.59C593.883,1355.78 580.266,1322.77 580.309,1287.65C580.344,1252.52 594.02,1219.55 618.809,1194.79L779.926,1034C779.484,1032.6 779.18,1031.18 778.758,1029.77C777.922,1026.97 777.184,1024.14 776.43,1021.31C775.02,1016.06 773.754,1010.77 772.641,1005.43C772.02,1002.44 771.418,999.449 770.895,996.441C769.922,990.852 769.176,985.219 768.527,979.551C768.223,976.898 767.836,974.262 767.609,971.59C766.898,963.281 766.457,954.922 766.457,946.488C766.465,940.219 766.715,933.949 767.137,927.699C767.27,925.602 767.531,923.512 767.711,921.422C768.086,917.262 768.473,913.102 769.02,908.98C769.105,908.309 769.141,907.629 769.23,906.961L549.945,1125.79C460.637,1214.92 460.492,1360.11 549.637,1449.45C592.84,1492.77 650.363,1516.64 711.617,1516.64C772.641,1516.64 830.027,1492.89 873.223,1449.77L1108.34,1215.21C1124.43,1199.19 1137.97,1180.96 1148.61,1161.02C1174.28,1112.79 1181.72,1057.55 1170.38,1004.95C1167.76,992.809 1164.14,980.801 1159.52,969.059C1148.05,939.941 1130.96,913.859 1108.7,891.551C1090.89,873.68 1070.68,859.102 1048.42,848.039" style="fill:white;fill-rule:nonzero;"/>
                <path d="M825.059,931.02C824.695,936.18 824.477,941.352 824.469,946.539C824.469,975.789 829.824,1004.19 840.387,1030.91C851.816,1059.92 868.949,1086 891.352,1108.45C909.105,1126.31 929.297,1140.89 951.551,1151.94L998.477,1105.1C1000.54,1103.04 1002.42,1100.85 1004.2,1098.59C1004.76,1097.89 1005.26,1097.15 1005.78,1096.44C1006.95,1094.82 1008.09,1093.15 1009.13,1091.45C1009.65,1090.58 1010.16,1089.71 1010.65,1088.82C1011.59,1087.12 1012.45,1085.39 1013.25,1083.62C1013.65,1082.75 1014.07,1081.89 1014.42,1081.01C1015.35,1078.75 1016.14,1076.45 1016.84,1074.12C1016.94,1073.77 1017.09,1073.43 1017.18,1073.07C995.91,1067.02 976.363,1055.59 960.363,1039.59C937.43,1016.66 923.973,986.34 922.273,954.02L922.273,954C922.25,953.629 922.18,953.262 922.172,952.879C922,950.828 921.965,948.719 921.965,946.691C922.055,911.531 935.742,878.559 960.512,853.801L1195.64,619.238C1220.49,594.488 1253.44,580.871 1288.44,580.871C1323.54,580.871 1356.55,594.559 1381.4,619.41C1432.52,670.711 1432.4,754.012 1381.17,805.148L1219.98,966.012C1220.57,967.859 1221.03,969.719 1221.58,971.578C1222.38,974.262 1223.19,976.949 1223.9,979.672C1224.53,982.039 1225.08,984.43 1225.64,986.809C1226.31,989.59 1226.97,992.371 1227.55,995.172C1228.03,997.52 1228.45,999.91 1228.88,1002.27C1229.39,1005.11 1229.89,1007.93 1230.32,1010.76C1230.67,1013.14 1230.97,1015.53 1231.26,1017.92C1231.61,1020.75 1231.95,1023.57 1232.23,1026.41C1232.45,1028.82 1232.62,1031.23 1232.78,1033.64C1232.97,1036.46 1233.15,1039.27 1233.26,1042.07C1233.36,1044.54 1233.4,1046.98 1233.44,1049.44C1233.47,1052.2 1233.48,1054.98 1233.44,1057.75C1233.4,1060.24 1233.33,1062.72 1233.22,1065.2C1233.11,1067.93 1232.96,1070.68 1232.77,1073.4C1232.59,1075.91 1232.37,1078.4 1232.13,1080.91C1231.87,1083.61 1231.57,1086.31 1231.24,1088.99C1231.07,1090.31 1230.98,1091.62 1230.8,1092.93L1450.04,874.148C1493.25,831.07 1517.06,773.641 1517.13,712.422C1517.2,651.211 1493.51,593.73 1450.43,550.551C1407.21,507.219 1349.69,483.359 1288.44,483.359C1227.39,483.359 1169.97,507.109 1126.78,550.25L891.656,784.781C875.535,800.922 861.926,819.148 851.254,838.961C851.254,838.969 851.242,838.969 851.242,838.98C836.184,867.191 827.266,898.738 825.059,931.02" style="fill:white;fill-rule:nonzero;"/>
            </g>
        </g>
        <g id="scissors-svgrepo-com.svg" transform="matrix(0.56155,3.60201e-19,-3.60201e-19,0.56155,500,702.151)">
            <g transform="matrix(1,0,0,1,-400,-400)">
                <g>
                    <path d="M688.86,608.038C667.6,570.965 634.612,545.857 599.791,536.405C572.274,528.891 543.736,531.195 519.047,545.15L445.608,416.756C491.059,326.09 593.088,122.817 611.389,90.771C635.109,49.326 592.669,0 592.669,0L399.974,337.007L207.331,0C207.331,0 164.917,49.326 188.611,90.745C206.938,122.817 308.993,326.064 354.392,416.73L280.979,545.124C256.29,531.169 227.7,528.865 200.236,536.379C165.362,545.831 132.4,570.939 111.14,608.012C72.968,674.696 87.551,754.68 143.579,786.752C168.425,801.021 197.199,803.299 224.925,795.785C259.72,786.281 292.761,761.173 313.994,724.179C323.288,707.841 329.441,690.745 332.583,673.753L332.583,673.779C332.609,673.648 332.609,673.517 332.74,673.387C332.923,671.973 333.185,670.559 333.316,669.014C349.077,563.267 378.872,509.255 399.948,483.021C421.076,509.255 450.897,563.241 466.632,669.014C466.789,670.559 467.051,671.973 467.182,673.387C467.286,673.517 467.286,673.648 467.339,673.779L467.339,673.753C470.507,690.719 476.633,707.841 485.901,724.179C507.161,761.173 540.202,786.281 575.023,795.785C602.749,803.299 631.522,801.021 656.421,786.752C712.475,754.68 727.006,674.722 688.86,608.038ZM259.484,692.97C247.441,713.994 228.354,729.834 208.483,735.253C199.633,737.662 186.647,739.128 174.735,732.295C149.339,717.764 145.176,675.062 165.676,639.194C177.929,617.934 196.492,602.461 216.73,596.937C225.501,594.554 238.487,593.114 250.452,599.895C275.874,614.478 280.01,657.076 259.484,692.97ZM625.239,732.295C613.326,739.154 600.393,737.662 591.543,735.253C571.646,729.834 552.585,713.994 540.516,692.97C520.016,657.076 524.152,614.478 549.575,599.895C561.539,593.088 574.525,594.554 583.322,596.937C603.508,602.461 622.123,617.934 634.298,639.194C654.798,675.062 650.661,717.764 625.239,732.295Z" style="fill:white;fill-rule:nonzero;"/>
                </g>
            </g>
        </g>
    </g>
</svg>
